# xmcd
#
# Track frame offsets:
#	150
#	12655
#	25878
#	40038
#	54029
#	66687
#	82755
#	96636
#	111810
#	126024
#	139271
#	155153
#	168116
#	182718
#
# Disc length: 2656 seconds
#
# Revision: 0
# Processed by: cddbd v1.5.2PL0 Copyright (c) Steve Scherf et al.
# Submitted via: EasyCDDAExtractor 12.0.2.1
#
DISCID=bb0a5e0e
DTITLE=Judith and Mel - Sag' noch einmal "Ich liebe Dich"
DYEAR=2008
DGENRE=Volksmusik
TTITLE0=Mit den Augen gefunden
TTITLE1=Das Glück zu zweit
TTITLE2=Ich hör´deinen Herzschlag
TTITLE3=Dein Kuss sagt mehr
TTITLE4=Wer hat denn da wohl wen verführt
TTITLE5=Ich habe Lust
TTITLE6=Für dich tu ich alles
TTITLE7=Das Herz einer Mutter
TTITLE8=Küss´mihc
TTITLE9=Träume werden auch mal in Erfüllung gehn´n
TTITLE10=Bis ans Ende der Zeit
TTITLE11=Wenn dein Herz mein Herz verführt
TTITLE12=Bereit für dich
TTITLE13=Die Zeit vergeht
EXTD=
EXTT0=
EXTT1=
EXTT2=
EXTT3=
EXTT4=
EXTT5=
EXTT6=
EXTT7=
EXTT8=
EXTT9=
EXTT10=
EXTT11=
EXTT12=
EXTT13=
PLAYORDER=
